<?xml version="1.0" encoding="UTF-8" standalone="no"?>
<svg
   xmlns:dc="http://purl.org/dc/elements/1.1/"
   xmlns:cc="http://creativecommons.org/ns#"
   xmlns:rdf="http://www.w3.org/1999/02/22-rdf-syntax-ns#"
   xmlns:svg="http://www.w3.org/2000/svg"
   xmlns="http://www.w3.org/2000/svg"
   width="128"
   height="64"
   viewBox="0 0 40.640004 20.319998"
   version="1.1"
   id="svg8">
  <defs
     id="defs2" />
  <metadata
     id="metadata5">
    <rdf:RDF>
      <cc:Work
         rdf:about="">
        <dc:format>image/svg+xml</dc:format>
        <dc:type
           rdf:resource="http://purl.org/dc/dcmitype/StillImage" />
        <dc:title></dc:title>
      </cc:Work>
    </rdf:RDF>
  </metadata>
  <g
     id="layer1"
     transform="translate(144.75004,-96.595742)">
    <g
       id="g872"
       transform="matrix(1.3333334,0,0,1.3333334,43.22526,-32.198587)">
      <g
         id="g1919"
         transform="matrix(0.18361895,0,0,0.18361895,-99.441082,78.858933)">
        <rect
           transform="matrix(0.96243912,0.2714976,0.11335858,-0.99355414,0,0)"
           y="-180.19829"
           x="-96.331955"
           height="55.940475"
           width="44.816307"
           id="rect827"
           style="opacity:1;fill:#ffffff;fill-opacity:1;stroke:#000000;stroke-width:0.402623;stroke-linecap:round;stroke-linejoin:round;stroke-miterlimit:4;stroke-dasharray:none;stroke-dashoffset:0;stroke-opacity:1" />
        <rect
           style="opacity:1;fill:#ffffff;fill-opacity:1;stroke:#000000;stroke-width:0.400627;stroke-linecap:round;stroke-linejoin:round;stroke-miterlimit:4;stroke-dasharray:none;stroke-dashoffset:0;stroke-opacity:1"
           id="rect825"
           width="49.219193"
           height="55.940475"
           x="-100.22533"
           y="-175.95415"
           transform="matrix(0.98148533,0.19153731,0.11335858,-0.99355414,0,0)" />
        <rect
           transform="rotate(6.5089593)"
           style="opacity:1;fill:#ffffff;fill-opacity:1;stroke:#000000;stroke-width:0.4;stroke-linecap:round;stroke-linejoin:round;stroke-miterlimit:4;stroke-dasharray:none;stroke-dashoffset:0;stroke-opacity:1"
           id="rect823"
           width="49.066177"
           height="55.443634"
           x="-102.33469"
           y="115.98112" />
        <rect
           transform="matrix(0.99940572,0.0344705,-0.11335858,0.99355414,0,0)"
           y="111.95033"
           x="-100.22533"
           height="55.940475"
           width="49.219193"
           id="rect815"
           style="opacity:1;fill:#ffff00;fill-opacity:1;stroke:#000000;stroke-width:0.400627;stroke-linecap:round;stroke-linejoin:round;stroke-miterlimit:4;stroke-dasharray:none;stroke-dashoffset:0;stroke-opacity:1" />
        <path
           transform="matrix(1.1567092,-0.02856852,0.72726137,0.61862526,-7.5838135,66.294669)"
           d="m -124.46308,121.89057 -9.57665,-2.25282 6.73932,-7.16721 z"
           id="path829"
           style="opacity:1;fill:#ff0000;fill-opacity:1;stroke:#000000;stroke-width:0.699214;stroke-linecap:round;stroke-linejoin:round;stroke-miterlimit:4;stroke-dasharray:none;stroke-dashoffset:0;stroke-opacity:1" />
        <path
           id="path831"
           d="m -75.969576,122.32383 a 5.0136588,5.0136588 0 0 0 -5.36123,4.6401 5.0136588,5.0136588 0 0 0 4.6401,5.36123 5.0136588,5.0136588 0 0 0 4.463725,-2.13035 4.285461,4.285461 0 0 0 3.698529,2.76965 4.285461,4.285461 0 0 0 4.582628,-3.96622 4.285461,4.285461 0 0 0 -3.966263,-4.58212 4.285461,4.285461 0 0 0 -3.600203,1.53617 5.0136588,5.0136588 0 0 0 -4.457286,-3.62846 z"
           style="opacity:1;fill:#ffffff;fill-opacity:1;stroke:#000000;stroke-width:0.6;stroke-linecap:round;stroke-linejoin:round;stroke-miterlimit:4;stroke-dasharray:none;stroke-dashoffset:0;stroke-opacity:1" />
        <circle
           transform="rotate(12.467734)"
           r="1.1687621"
           cy="140.64871"
           cx="-39.08532"
           id="path836"
           style="opacity:1;fill:#000000;fill-opacity:1;stroke:none;stroke-width:0.6;stroke-linecap:round;stroke-linejoin:round;stroke-miterlimit:4;stroke-dasharray:none;stroke-dashoffset:0;stroke-opacity:1" />
        <circle
           transform="rotate(12.467734)"
           style="opacity:1;fill:#000000;fill-opacity:1;stroke:none;stroke-width:0.6;stroke-linecap:round;stroke-linejoin:round;stroke-miterlimit:4;stroke-dasharray:none;stroke-dashoffset:0;stroke-opacity:1"
           id="circle838"
           cx="-46.49366"
           cy="141.17787"
           r="1.1687621" />
        <path
           id="path840"
           d="m -81.249684,145.97988 c -4.708894,18.8066 -23.359986,13.7068 -21.751766,11.10157 1.29594,-1.84603 7.850409,-2.21975 7.850409,-2.21975 0,0 -9.307109,0.51707 -9.522369,-0.96183 -0.35908,-2.46727 5.345746,-2.87904 9.0481,-3.20466 0,0 -8.53522,-0.10149 -8.32468,-1.94674 0.21053,-1.84525 5.055416,-3.07627 11.008341,-1.36098"
           style="opacity:1;fill:none;stroke:#000000;stroke-width:0.6;stroke-linecap:butt;stroke-linejoin:miter;stroke-miterlimit:4;stroke-dasharray:none;stroke-opacity:1" />
        <path
           id="path842"
           d="m -62.349743,123.34927 c -1.54294,-0.97692 -1.605702,-2.68193 -5.239319,-2.63047"
           style="opacity:1;fill:none;stroke:#000000;stroke-width:0.6;stroke-linecap:butt;stroke-linejoin:miter;stroke-miterlimit:4;stroke-dasharray:none;stroke-opacity:1" />
        <path
           id="path844"
           d="m -83.246057,120.14889 c 6.141097,-3.10871 7.178895,-1.74503 9.171872,-1.21844"
           style="opacity:1;fill:none;stroke:#000000;stroke-width:0.6;stroke-linecap:butt;stroke-linejoin:miter;stroke-miterlimit:4;stroke-dasharray:none;stroke-opacity:1" />
        <path
           id="path846"
           d="m -82.80255,164.29037 -1.145957,10.04397"
           style="opacity:1;fill:none;stroke:#000000;stroke-width:0.4;stroke-linecap:butt;stroke-linejoin:miter;stroke-miterlimit:4;stroke-dasharray:none;stroke-opacity:1" />
        <path
           id="path852"
           d="m -91.582162,175.03288 -3.069165,2.57891"
           style="opacity:1;fill:none;stroke:#000000;stroke-width:0.4;stroke-linecap:butt;stroke-linejoin:miter;stroke-miterlimit:4;stroke-dasharray:none;stroke-opacity:1" />
        <path
           id="path854"
           d="m -87.549905,178.95083 -4.032257,-3.91795"
           style="opacity:1;fill:none;stroke:#000000;stroke-width:0.4;stroke-linecap:butt;stroke-linejoin:miter;stroke-miterlimit:4;stroke-dasharray:none;stroke-opacity:1" />
        <path
           id="path856"
           d="m -87.961685,174.93219 -3.620477,0.10069"
           style="opacity:1;fill:none;stroke:#000000;stroke-width:0.4;stroke-linecap:butt;stroke-linejoin:miter;stroke-miterlimit:4;stroke-dasharray:none;stroke-opacity:1" />
        <path
           style="opacity:1;fill:none;stroke:#000000;stroke-width:0.4;stroke-linecap:butt;stroke-linejoin:miter;stroke-miterlimit:4;stroke-dasharray:none;stroke-opacity:1"
           d="m -83.948507,174.33434 -2.123645,1.78442"
           id="path858" />
        <path
           style="opacity:1;fill:none;stroke:#000000;stroke-width:0.4;stroke-linecap:butt;stroke-linejoin:miter;stroke-miterlimit:4;stroke-dasharray:none;stroke-opacity:1"
           d="m -81.15847,177.04528 -2.790037,-2.71094"
           id="path860" />
        <path
           style="opacity:1;fill:none;stroke:#000000;stroke-width:0.4;stroke-linecap:butt;stroke-linejoin:miter;stroke-miterlimit:4;stroke-dasharray:none;stroke-opacity:1"
           d="m -81.443393,174.26467 -2.505114,0.0697"
           id="path862" />
        <path
           style="opacity:1;fill:#ff0000;fill-opacity:1;stroke:#000000;stroke-width:0.699214;stroke-linecap:round;stroke-linejoin:round;stroke-miterlimit:4;stroke-dasharray:none;stroke-dashoffset:0;stroke-opacity:1"
           id="path864"
           d="m -124.46308,121.89057 -9.57665,-2.25282 6.73932,-7.16721 z"
           transform="matrix(0.97015947,0.55362722,0.98802256,-0.19517421,-60.65962,231.93689)" />
        <path
           id="path1012"
           d="m -106.82977,97.096078 a 0.21690135,0.18445251 56.13118 0 0 -0.16396,0.152611 l -0.39741,3.485281 -4.5604,-0.890306 a 0.20810055,0.1922532 53.775736 0 0 -0.22007,0.161216 l -0.42002,3.68156 -2.20915,-0.25191 a 0.20002,0.20002 0 0 0 -0.019,-0.003 l -2e-5,5.3e-4 a 0.20002,0.20002 0 0 0 -0.20144,0.17782 l -6.28472,55.08592 a 0.20002,0.20002 0 0 0 0.17511,0.22205 l 2.20915,0.25191 -0.47671,4.17666 a 0.1922532,0.20810055 49.242184 0 0 0.17817,0.20716 l 28.633077,0.98758 -1.18442,10.38785 -3.010287,2.53014 0.258365,0.30528 2.931668,-2.46226 3.901892,3.79156 0.278235,-0.2866 -3.690564,-3.58701 3.145631,-0.0877 -0.01086,-0.40102 -3.389872,0.0946 1.170989,-10.27142 7.12302,0.24579 -1.075234,9.43269 -2.063274,1.73327 0.257863,0.30474 1.983703,-1.66801 2.662194,2.58578 0.278749,-0.28658 -2.450848,-2.38173 2.031523,-0.056 -0.01092,-0.39896 -2.274717,0.0625 1.061728,-9.31368 12.625399,0.43521 0.0061,0.002 a 0.21690135,0.18445251 56.13118 0 0 0.216536,-0.14737 l 0.0014,-0.01 a 0.20810055,0.1922532 53.775736 0 0 6.84e-4,-0.005 l 0.0036,-0.0325 1.438012,-12.60108 0.856403,-7.50739 4.685324,0.41232 a 0.24627665,0.09177358 14.668853 0 0 0.08092,-0.14226 l -4.505778,-2.55495 0.187908,-1.64448 0.175945,-1.54196 6.024737,-0.13356 a 0.24711343,0.09146281 11.821408 0 0 0.01527,-0.15876 l -5.730635,-2.41966 0.4704,-4.12308 c 1.311823,-0.70291 2.249192,-2.03865 2.363963,-3.63071 0.10498,-1.45809 -0.50515,-2.8007 -1.528167,-3.69533 l 0.441321,-3.86859 c 0.194395,0.10819 0.364517,0.22774 0.520491,0.35527 0.630817,0.51582 1.041383,1.19906 1.856244,1.715 l 0.213637,-0.33772 c -0.728077,-0.46099 -1.121021,-1.11983 -1.81572,-1.68788 -0.208694,-0.17065 -0.449656,-0.32575 -0.727063,-0.46301 l 0.996818,-8.73663 0.315733,-2.76761 0.0021,-0.0164 0.0035,-0.0304 a 0.1922532,0.20810055 49.242184 0 0 -0.170429,-0.20639 0.20810055,0.1922532 53.775736 0 0 -0.0062,-10e-4 L -106.77708,97.103342 a 0.21690135,0.18445251 56.13118 0 0 -0.0525,-0.0076 z m 15.246747,77.936822 0.0011,4e-5 -5.45e-4,5.1e-4 z"
           style="color:#000000;font-style:normal;font-variant:normal;font-weight:normal;font-stretch:normal;font-size:medium;line-height:normal;font-family:sans-serif;font-variant-ligatures:normal;font-variant-position:normal;font-variant-caps:normal;font-variant-numeric:normal;font-variant-alternates:normal;font-feature-settings:normal;text-indent:0;text-align:start;text-decoration:none;text-decoration-line:none;text-decoration-style:solid;text-decoration-color:#000000;letter-spacing:normal;word-spacing:normal;text-transform:none;writing-mode:lr-tb;direction:ltr;text-orientation:mixed;dominant-baseline:auto;baseline-shift:baseline;text-anchor:start;white-space:normal;shape-padding:0;clip-rule:nonzero;display:inline;overflow:visible;visibility:visible;opacity:1;isolation:auto;mix-blend-mode:normal;color-interpolation:sRGB;color-interpolation-filters:linearRGB;solid-color:#000000;solid-opacity:1;vector-effect:none;fill:none;fill-opacity:1;fill-rule:nonzero;stroke:#000000;stroke-width:1;stroke-linecap:round;stroke-linejoin:round;stroke-miterlimit:4;stroke-dasharray:none;stroke-dashoffset:0;stroke-opacity:1;color-rendering:auto;image-rendering:auto;shape-rendering:auto;text-rendering:auto;enable-background:accumulate" />
      </g>
    </g>
  </g>
  <g
     aria-label="LIDAO"
     id="text855"
     style="font-size:9.31333px;line-height:1.25;font-family:'Roboto Condensed';-inkscape-font-specification:'Roboto Condensed, ';fill:#808000;stroke-width:0.3175">
    <path
       d="m 1.3369721,12.661967 h 2.3465226 v 1.109596 H 1.3969839e-8 V 7.1503672 H 1.3369721 Z"
       style="font-style:normal;font-variant:normal;font-weight:bold;font-stretch:normal;font-size:9.31333px;font-family:'Roboto Condensed';-inkscape-font-specification:'Roboto Condensed, Bold';fill:#808000;stroke-width:0.3175"
       id="path855" />
    <path
       d="M 5.8526639,13.771563 H 4.5156918 V 7.1503672 h 1.3369721 z"
       style="font-style:normal;font-variant:normal;font-weight:bold;font-stretch:normal;font-size:9.31333px;font-family:'Roboto Condensed';-inkscape-font-specification:'Roboto Condensed, Bold';fill:#808000;stroke-width:0.3175"
       id="path857" />
    <path
       d="M 6.9759026,13.771563 V 7.1503672 h 1.7507968 q 1.1596187,0 1.8462946,0.736699 0.691224,0.7366989 0.704867,2.0191008 v 1.073216 q 0,1.305139 -0.691224,2.050933 -0.6866763,0.741247 -1.8963178,0.741247 z M 8.3128747,8.2645107 v 4.3974563 h 0.4001821 q 0.6684861,0 0.9413376,-0.35016 0.2728514,-0.354707 0.286494,-1.218736 V 9.9425471 q 0,-0.9276949 -0.2592089,-1.2914968 Q 9.4224706,8.2827008 8.7994598,8.2645107 Z"
       style="font-style:normal;font-variant:normal;font-weight:bold;font-stretch:normal;font-size:9.31333px;font-family:'Roboto Condensed';-inkscape-font-specification:'Roboto Condensed, Bold';fill:#808000;stroke-width:0.3175"
       id="path859" />
    <path
       d="m 15.302419,12.4164 h -1.823557 l -0.354707,1.355163 h -1.41428 l 2.069123,-6.6211958 h 1.223284 l 2.082766,6.6211958 H 15.657126 Z M 13.769903,11.302257 H 15.00683 L 14.388367,8.9420918 Z"
       style="font-style:normal;font-variant:normal;font-weight:bold;font-stretch:normal;font-size:9.31333px;font-family:'Roboto Condensed';-inkscape-font-specification:'Roboto Condensed, Bold';fill:#808000;stroke-width:0.3175"
       id="path861" />
    <path
       d="m 22.269226,11.056691 q 0,1.332424 -0.632106,2.069123 -0.627559,0.736699 -1.74625,0.736699 -1.114143,0 -1.750796,-0.727604 -0.636654,-0.732151 -0.645749,-2.046386 V 9.9561897 q 0,-1.3642573 0.632106,-2.1282413 0.632106,-0.7685316 1.755344,-0.7685316 1.105049,0 1.741702,0.754889 0.636653,0.7503415 0.645749,2.1100512 z m -1.34152,-1.1095963 q 0,-0.8958623 -0.254661,-1.3324246 -0.254662,-0.4365624 -0.79127,-0.4365624 -0.53206,0 -0.786721,0.4229198 -0.254662,0.4183722 -0.263757,1.2778543 v 1.1778092 q 0,0.868577 0.259209,1.282401 0.259209,0.409278 0.800364,0.409278 0.522966,0 0.777627,-0.400183 0.254661,-0.404729 0.259209,-1.250569 z"
       style="font-style:normal;font-variant:normal;font-weight:bold;font-stretch:normal;font-size:9.31333px;font-family:'Roboto Condensed';-inkscape-font-specification:'Roboto Condensed, Bold';fill:#808000;stroke-width:0.3175"
       id="path863" />
  </g>
</svg>
